<!-- icon666.com - MILLIONS vector ICONS FREE --><svg version="1.1" id="Capa_1" xmlns="http://www.w3.org/2000/svg" xmlns:xlink="http://www.w3.org/1999/xlink" x="0px" y="0px" viewBox="0 0 512 512" style="enable-background:new 0 0 512 512;" xml:space="preserve"><g><g><path d="M496.484,0H119.726C53.708,0,0,53.709,0,119.726v376.758C0,505.04,6.96,512,15.516,512h144.291 c8.556,0,15.516-6.96,15.516-15.516v-17.781c9.308-3.14,16.032-11.946,16.032-22.3V344.178c0-6.191-2.406-11.827-6.328-16.033 c3.922-4.206,6.328-9.842,6.328-16.032V199.887c0-4.219-1.122-8.178-3.074-11.606c3.428,1.952,7.387,3.073,11.606,3.073h112.226 c6.19,0,11.827-2.406,16.032-6.328c4.206,3.922,9.842,6.328,16.032,6.328h112.226c10.354,0,19.16-6.724,22.3-16.032h17.781 c8.556,0,15.516-6.96,15.516-15.516V15.516C512,6.96,505.04,0,496.484,0z M160.322,496.484c0.001,0.285-0.231,0.516-0.515,0.516 H47.064v-17.064h113.258V496.484z M119.726,64.129c-30.656,0-55.597,24.94-55.597,55.597v56.629H47.064v-56.629 c0-40.065,32.596-72.661,72.661-72.661h56.629v17.064H119.726z M127.906,106.891l-17.005,17.005 c-3.326,3.326-8.739,3.327-12.067,0L87.498,112.56c-3.327-3.326-3.327-8.739,0-12.066l17.005-17.004 c1.612-1.612,3.754-2.5,6.033-2.5s4.421,0.888,6.033,2.499l11.337,11.336C131.233,98.152,131.233,103.565,127.906,106.891z M120.242,456.403c0,4.705-3.828,8.532-8.532,8.532H87.661c-4.705,0-8.532-3.828-8.532-8.532v-16.032 c0-4.705,3.828-8.532,8.532-8.532h24.048c4.705,0,8.532,3.827,8.532,8.532L120.242,456.403L120.242,456.403z M64.128,191.354 v129.291H47.064V191.354H64.128z M64.128,335.646v129.29H47.064v-129.29H64.128z M176.355,312.113 c0,4.705-3.828,8.533-8.532,8.533h-48.098c-4.142,0-7.5,3.357-7.5,7.5c0,4.142,3.358,7.5,7.5,7.5h48.098 c4.705,0,8.532,3.827,8.532,8.532v112.225h0c0,4.705-3.828,8.532-8.532,8.532h-34.189c1.034-2.647,1.608-5.523,1.608-8.532 v-16.032c0-12.976-10.557-23.532-23.532-23.532H87.661c-3.009,0-5.885,0.574-8.532,1.607v-82.801h8.534c4.142,0,7.5-3.358,7.5-7.5 c0-4.143-3.358-7.5-7.5-7.5h-8.534V191.354h88.694c4.705,0,8.532,3.828,8.532,8.533V312.113z M176.356,167.822h-0.001 c0,4.705-3.828,8.532-8.532,8.532H79.129v-50.949l9.099,9.099c4.588,4.588,10.614,6.881,16.64,6.881s12.053-2.293,16.64-6.881 l17.005-17.005c9.175-9.175,9.175-24.104,0-33.279l-5.09-5.091h42.933V167.822z M464.935,167.822 c0.001,4.705-3.827,8.532-8.532,8.532H344.177c-4.705,0-8.532-3.827-8.532-8.532v-48.095c0-4.142-3.358-7.5-7.5-7.5 c-4.142,0-7.5,3.358-7.5,7.5v48.095c0,4.705-3.828,8.532-8.532,8.532H199.887c-4.705,0-8.532-3.827-8.532-8.532V79.129h129.29 v8.536c0,4.143,3.358,7.5,7.5,7.5c4.142,0,7.5-3.357,7.5-7.5v-8.536h82.802c-1.034,2.647-1.608,5.523-1.608,8.532v24.049 c0,12.976,10.557,23.532,23.532,23.532h16.032c3.009,0,5.885-0.574,8.532-1.608V167.822z M191.355,64.128V47.064h129.29v17.064 H191.355z M464.935,111.71c0,4.704-3.828,8.532-8.532,8.532h-16.032c-4.705,0-8.532-3.828-8.532-8.532V87.661 c0-4.704,3.828-8.532,8.532-8.532h16.032c4.705,0,8.532,3.828,8.532,8.532V111.71z M335.645,64.129V47.064h129.291v17.065H335.645 z M497,159.806c0,0.285-0.231,0.516-0.516,0.516h-16.548V47.064H497V159.806z M497,32.064H119.726 c-48.336,0-87.661,39.325-87.661,87.661V497H15.516c-0.285,0-0.516-0.231-0.516-0.516V119.726C15,61.979,61.979,15,119.726,15 h376.758c0.285,0,0.516,0.231,0.516,0.516V32.064z"></path></g></g></svg>