<!-- icon666.com - MILLIONS vector ICONS FREE --><svg version="1.1" id="Capa_1" xmlns="http://www.w3.org/2000/svg" xmlns:xlink="http://www.w3.org/1999/xlink" x="0px" y="0px" viewBox="0 0 512 512" style="enable-background:new 0 0 512 512;" xml:space="preserve"><g><g><path d="M187.799,84.902c0-6.286-2.448-12.195-6.893-16.64l-56.683-56.683c-15.426-15.426-40.526-15.426-55.952,0L11.588,68.261 C4.116,75.734,0,85.67,0,96.238s4.116,20.504,11.588,27.976l56.683,56.683c4.444,4.445,10.354,6.893,16.64,6.893 c4.03,0,7.903-1.011,11.336-2.905c3.434,1.894,7.307,2.905,11.336,2.905c6.286,0,12.195-2.448,16.64-6.893l56.683-56.682 c4.445-4.445,6.893-10.354,6.893-16.64c0-4.03-1.011-7.903-2.904-11.337C186.788,92.804,187.799,88.931,187.799,84.902z M170.299,113.608l-56.683,56.683c-1.612,1.612-3.754,2.499-6.033,2.499c-0.243,0-0.483-0.015-0.722-0.035 c1.034-2.675,1.582-5.543,1.582-8.497c0-6.286-2.448-12.195-6.893-16.64l-28.706-28.706l46.076-46.076l28.707,28.707 c4.445,4.445,10.354,6.892,16.64,6.892c2.954,0,5.822-0.547,8.497-1.582c0.02,0.239,0.035,0.479,0.035,0.722 C172.798,109.853,171.911,111.996,170.299,113.608z M62.237,108.304L50.171,96.238l46.076-46.076l12.066,12.066L62.237,108.304z M170.3,90.934c-1.612,1.611-3.754,2.499-6.033,2.499c-2.279,0-4.421-0.888-6.033-2.499L101.55,34.252 c-2.929-2.929-7.678-2.929-10.606,0L34.261,90.935c-2.929,2.929-2.929,7.677,0,10.606l56.683,56.683 c1.612,1.612,2.499,3.754,2.499,6.033c0,2.279-0.887,4.421-2.499,6.033c-1.611,1.612-3.754,2.499-6.033,2.499 s-4.421-0.887-6.033-2.499l-56.683-56.683c-4.64-4.64-7.195-10.808-7.195-17.37s2.555-12.729,7.195-17.369l56.683-56.683 c9.578-9.577,25.162-9.578,34.739,0L170.3,78.868c1.612,1.612,2.499,3.754,2.499,6.033S171.912,89.323,170.3,90.934z"></path></g></g><g><g><path d="M500.412,387.768l-56.683-56.683c-4.444-4.445-10.354-6.893-16.64-6.893c-4.03,0-7.903,1.011-11.336,2.905 c-3.434-1.894-7.307-2.905-11.336-2.905c-6.286,0-12.195,2.448-16.64,6.893l-56.683,56.682c-4.445,4.445-6.893,10.354-6.893,16.64 c0,4.03,1.011,7.903,2.904,11.337c-1.893,3.434-2.904,7.307-2.904,11.336c0,6.286,2.448,12.195,6.893,16.64l56.683,56.683 c7.473,7.473,17.408,11.588,27.976,11.588c10.568,0,20.503-4.116,27.976-11.588l56.683-56.683 c7.473-7.473,11.588-17.408,11.588-27.976S507.884,395.24,500.412,387.768z M341.701,398.374l56.683-56.683 c1.612-1.612,3.754-2.499,6.033-2.499c0.243,0,0.483,0.015,0.722,0.035c-1.034,2.675-1.582,5.543-1.582,8.497 c0,6.286,2.448,12.195,6.893,16.64l28.706,28.706l-46.076,46.076l-28.706-28.707c-4.445-4.445-10.354-6.892-16.64-6.892 c-2.954,0-5.822,0.547-8.497,1.582c-0.02-0.239-0.035-0.479-0.035-0.722C339.202,402.128,340.089,399.986,341.701,398.374z M449.762,403.677l12.067,12.067l-46.076,46.076l-12.067-12.067L449.762,403.677z M489.805,433.113l-56.683,56.683 c-4.64,4.64-10.808,7.195-17.37,7.195c-6.562,0-12.73-2.555-17.37-7.195l-56.683-56.683c-1.612-1.611-2.499-3.754-2.499-6.033 s0.887-4.421,2.499-6.033c1.612-1.611,3.754-2.499,6.033-2.499s4.421,0.888,6.033,2.499l56.683,56.683 c2.929,2.929,7.678,2.929,10.606,0l56.683-56.683c2.929-2.929,2.929-7.678,0-10.606l-56.683-56.683 c-1.612-1.612-2.499-3.754-2.499-6.033s0.887-4.421,2.499-6.033c1.611-1.612,3.754-2.499,6.033-2.499s4.421,0.887,6.033,2.499 l56.683,56.683c4.64,4.64,7.195,10.808,7.195,17.37C497,422.305,494.445,428.474,489.805,433.113z"></path></g></g><g><g><path d="M500.412,68.262l-56.683-56.683c-15.426-15.426-40.526-15.426-55.952,0l-56.683,56.682 c-4.445,4.445-6.893,10.354-6.893,16.64c0,4.03,1.011,7.903,2.904,11.336c-1.893,3.434-2.904,7.307-2.904,11.337 c0.001,6.286,2.448,12.196,6.893,16.64l56.683,56.683c4.444,4.445,10.354,6.893,16.64,6.893c4.03,0,7.903-1.011,11.336-2.905 c3.434,1.894,7.307,2.905,11.336,2.905c6.286,0,12.195-2.448,16.64-6.893l56.683-56.683C507.884,116.741,512,106.806,512,96.238 S507.884,75.734,500.412,68.262z M489.806,113.608l-56.683,56.683c-1.612,1.612-3.754,2.499-6.033,2.499s-4.422-0.887-6.033-2.499 c-1.612-1.612-2.499-3.754-2.499-6.033s0.887-4.422,2.499-6.033l56.683-56.683c2.929-2.929,2.929-7.677,0-10.606l-56.683-56.683 c-2.929-2.929-7.678-2.929-10.606,0l-31.495,31.495c-2.929,2.929-2.929,7.677,0,10.606c2.929,2.929,7.678,2.929,10.606,0 l3.518-3.518l46.076,46.076l-28.706,28.706c-4.445,4.445-6.893,10.354-6.893,16.64c0,2.954,0.547,5.822,1.582,8.497 c-0.239,0.02-0.479,0.035-0.722,0.035c-2.279,0-4.421-0.887-6.033-2.499l-56.683-56.683c-1.612-1.612-2.499-3.754-2.499-6.033 c0-0.243,0.015-0.483,0.035-0.722c2.675,1.034,5.543,1.582,8.497,1.582c6.286,0,12.195-2.448,16.64-6.893l3.109-3.109 c2.929-2.929,2.928-7.678,0-10.606c-2.93-2.929-7.677-2.929-10.607,0l-3.108,3.109c-1.612,1.612-3.754,2.499-6.033,2.499 s-4.421-0.887-6.033-2.499c-1.612-1.611-2.499-3.754-2.499-6.033c-0.001-2.281,0.886-4.423,2.498-6.035l56.683-56.683 c9.578-9.577,25.162-9.578,34.739,0l56.683,56.683c4.64,4.64,7.195,10.808,7.195,17.37S494.446,108.968,489.806,113.608z M449.762,108.304l-46.076-46.076l12.066-12.066l46.076,46.076L449.762,108.304z"></path></g></g><g><g><path d="M187.799,404.408c-0.001-6.287-2.448-12.196-6.893-16.641l-56.683-56.683c-4.444-4.445-10.354-6.893-16.64-6.893 c-4.03,0-7.903,1.011-11.336,2.905c-3.434-1.894-7.307-2.905-11.336-2.905c-6.286,0-12.195,2.448-16.64,6.893l-56.683,56.683 C4.116,395.24,0,405.176,0,415.744s4.116,20.503,11.588,27.976l56.683,56.683c7.473,7.473,17.408,11.588,27.976,11.588 s20.503-4.116,27.976-11.588l56.683-56.682c4.445-4.445,6.893-10.354,6.893-16.64c0-4.03-1.011-7.903-2.904-11.336 C186.788,412.311,187.799,408.438,187.799,404.408z M144.141,424.532c2.929,2.929,7.678,2.929,10.606,0l3.485-3.485 c1.612-1.611,3.754-2.499,6.033-2.499c2.279,0,4.421,0.888,6.033,2.5c1.612,1.611,2.499,3.754,2.499,6.033 s-0.886,4.42-2.498,6.032l-56.683,56.683c-4.64,4.64-10.808,7.195-17.37,7.195c-6.562,0-12.73-2.555-17.37-7.195l-56.683-56.683 c-4.64-4.64-7.195-10.809-7.195-17.37c0-6.562,2.555-12.73,7.195-17.37l56.683-56.683c1.612-1.612,3.754-2.499,6.033-2.499 s4.422,0.887,6.033,2.499c1.612,1.612,2.499,3.754,2.499,6.033s-0.887,4.422-2.499,6.033L34.261,410.44 c-2.929,2.929-2.929,7.678,0,10.606l56.683,56.683c2.929,2.929,7.678,2.929,10.606,0l30.778-30.778 c2.929-2.929,2.929-7.678,0-10.606c-2.929-2.929-7.678-2.929-10.606,0l-2.802,2.802l-46.076-46.076l28.706-28.706 c4.445-4.445,6.893-10.354,6.893-16.64c0-2.954-0.547-5.822-1.582-8.497c0.239-0.02,0.479-0.035,0.722-0.035 c2.279,0,4.421,0.887,6.033,2.499l56.683,56.683c1.612,1.612,2.499,3.754,2.499,6.033c0,0.243-0.015,0.483-0.035,0.722 c-2.675-1.034-5.543-1.582-8.497-1.582c-6.286,0-12.195,2.448-16.64,6.893l-3.485,3.485 C141.212,416.855,141.212,421.604,144.141,424.532z M62.238,403.677l46.076,46.076L96.247,461.82l-46.076-46.076L62.238,403.677z"></path></g></g><g><g><path d="M256,144.281c-61.596,0-111.709,50.113-111.709,111.71S194.403,367.7,256,367.7s111.709-50.112,111.709-111.709 S317.596,144.281,256,144.281z M256,352.7c-53.326,0-96.709-43.384-96.709-96.71s43.384-96.71,96.709-96.71 s96.709,43.384,96.709,96.71S309.326,352.7,256,352.7z"></path></g></g><g><g><path d="M215.919,192.378c-12.976,0-23.532,10.557-23.532,23.532c0,12.975,10.557,23.532,23.532,23.532 s23.532-10.557,23.532-23.532C239.451,202.935,228.895,192.378,215.919,192.378z M215.919,224.442 c-4.705,0-8.532-3.828-8.532-8.532c0-4.704,3.828-8.532,8.532-8.532s8.532,3.828,8.532,8.532 C224.451,220.614,220.624,224.442,215.919,224.442z"></path></g></g><g><g><path d="M296.081,272.539c-12.976,0-23.532,10.557-23.532,23.532c0,12.975,10.557,23.532,23.532,23.532 c12.975,0,23.532-10.557,23.532-23.532C319.613,283.096,309.056,272.539,296.081,272.539z M296.081,304.604 c-4.705,0-8.532-3.828-8.532-8.532c0-4.704,3.828-8.532,8.532-8.532c4.704,0,8.532,3.828,8.532,8.532 C304.613,300.776,300.785,304.604,296.081,304.604z"></path></g></g><g><g><path d="M296.081,192.378c-12.976,0-23.532,10.557-23.532,23.532c0,12.975,10.557,23.532,23.532,23.532 c12.975,0,23.532-10.557,23.532-23.532C319.613,202.935,309.056,192.378,296.081,192.378z M296.081,224.442 c-4.705,0-8.532-3.828-8.532-8.532c0-4.704,3.828-8.532,8.532-8.532c4.704,0,8.532,3.828,8.532,8.532 C304.613,220.614,300.785,224.442,296.081,224.442z"></path></g></g><g><g><path d="M215.919,272.539c-12.976,0-23.532,10.557-23.532,23.532c0,12.975,10.557,23.532,23.532,23.532 s23.532-10.557,23.532-23.532C239.451,283.096,228.895,272.539,215.919,272.539z M215.919,304.604 c-4.705,0-8.532-3.828-8.532-8.532c0-4.704,3.828-8.532,8.532-8.532s8.532,3.828,8.532,8.532 C224.451,300.776,220.624,304.604,215.919,304.604z"></path></g></g></svg>