<!-- icon666.com - MILLIONS vector ICONS FREE --><svg version="1.1" id="Capa_1" xmlns="http://www.w3.org/2000/svg" xmlns:xlink="http://www.w3.org/1999/xlink" x="0px" y="0px" viewBox="0 0 512.002 512.002" style="enable-background:new 0 0 512.002 512.002;" xml:space="preserve"><g><g><path d="M392.273,80.163H71.629c-17.052,0-32.723,5.999-45.037,15.984L12.804,82.359c-2.93-2.928-7.678-2.928-10.607,0 c-2.929,2.93-2.929,7.678,0,10.607l13.788,13.788C5.999,119.068,0,134.739,0,151.791v208.42c0,17.052,5.999,32.723,15.984,45.037 L2.197,419.036c-2.929,2.93-2.929,7.678,0,10.607c1.465,1.464,3.385,2.196,5.304,2.196s3.839-0.732,5.304-2.196l13.788-13.788 c12.314,9.985,27.985,15.984,45.037,15.984h16.029c4.143,0,7.5-3.357,7.5-7.5s-3.358-7.499-7.501-7.499H71.629 c-12.914,0-24.825-4.354-34.362-11.659l23.634-23.634c2.929-2.93,2.929-7.678,0-10.607c-2.93-2.928-7.678-2.928-10.607,0 L26.66,394.574C19.354,385.036,15,373.125,15,360.211v-208.42c0-12.914,4.354-24.825,11.659-34.362l23.634,23.634 c1.465,1.464,3.385,2.196,5.304,2.196s3.839-0.732,5.304-2.196c2.929-2.93,2.929-7.678,0-10.607l-23.634-23.634 c9.537-7.305,21.448-11.659,34.362-11.659h320.644c4.143,0,7.5-3.357,7.5-7.5S396.416,80.163,392.273,80.163z"></path></g></g><g><g><path d="M509.805,419.036l-13.789-13.788C506.001,392.935,512,377.263,512,360.211v-208.42c0-17.052-5.999-32.723-15.984-45.037 l13.788-13.788c2.929-2.93,2.929-7.678,0-10.607c-2.93-2.928-7.678-2.928-10.607,0l-13.788,13.788 c-12.314-9.985-27.985-15.984-45.037-15.984h-16.029c-4.143,0-7.5,3.357-7.5,7.5s3.357,7.5,7.5,7.5h16.029 c12.914,0,24.825,4.354,34.362,11.659L451.1,130.455c-2.929,2.93-2.929,7.678,0,10.607c1.465,1.464,3.385,2.196,5.304,2.196 c1.919,0,3.839-0.732,5.304-2.196l23.634-23.634c7.304,9.538,11.658,21.449,11.658,34.363v208.42 c0,12.914-4.354,24.825-11.659,34.362l-23.634-23.634c-2.93-2.928-7.678-2.928-10.607,0c-2.929,2.93-2.929,7.678,0,10.607 l23.634,23.634c-9.537,7.305-21.448,11.659-34.362,11.659H119.726c-4.143,0-7.5,3.357-7.5,7.5s3.357,7.5,7.5,7.5h320.646 c17.052,0,32.723-5.999,45.037-15.984l13.788,13.788c1.465,1.464,3.385,2.196,5.304,2.196c1.919,0,3.839-0.732,5.304-2.196 C512.734,426.713,512.734,421.965,509.805,419.036z"></path></g></g><g><g><path d="M305.403,270.751c-5.979-5.985-12.623-10.842-19.505-14.429c3.856-2.278,7.513-5.087,10.839-8.409 c11.528-11.513,17.038-26.925,14.738-41.227c-0.515-3.197-3.023-5.703-6.221-6.215c-14.314-2.286-29.741,3.214-41.266,14.724 c-3.33,3.325-6.14,6.983-8.422,10.838c-3.586-6.895-8.442-13.553-14.424-19.541c-14.44-14.456-32.746-22.448-48.98-21.407 c-3.763,0.244-6.759,3.243-6.999,7.006c-1.039,16.249,6.961,34.578,21.397,49.03c5.975,5.981,12.613,10.855,19.491,14.442 c-3.85,2.277-7.503,5.078-10.825,8.396c-11.528,11.513-17.036,26.924-14.735,41.225c0.514,3.197,3.021,5.702,6.219,6.214 c2.142,0.343,4.306,0.512,6.479,0.512c12.361,0,24.986-5.445,34.786-15.233c3.33-3.325,6.14-6.983,8.422-10.839 c3.586,6.896,8.443,13.553,14.424,19.541c13.595,13.611,30.618,21.5,46.108,21.5c0.963,0,1.922-0.03,2.872-0.092 c3.763-0.244,6.759-3.243,6.999-7.006C327.838,303.532,319.84,285.204,305.403,270.751z M217.174,230.519 c-8.998-9.007-14.975-19.978-16.632-30.059c10.054,1.656,20.999,7.633,29.989,16.633c8.998,9.007,14.975,19.978,16.632,30.059 C237.109,245.496,226.164,239.519,217.174,230.519z M237.376,286.063c-6.362,6.354-14.507,10.205-22.318,10.766 c0.563-7.788,4.414-15.91,10.77-22.257c6.362-6.354,14.506-10.206,22.319-10.767C247.584,271.594,243.732,279.716,237.376,286.063 z M274.589,225.808c6.362-6.354,14.507-10.205,22.319-10.766c-0.563,7.788-4.415,15.91-10.771,22.257 c-6.361,6.354-14.506,10.205-22.318,10.767C264.382,240.277,268.234,232.155,274.589,225.808z M281.435,294.777 c-8.998-9.007-14.975-19.978-16.632-30.059c10.054,1.656,20.999,7.633,29.989,16.633c8.998,9.008,14.975,19.978,16.632,30.059 C301.37,309.754,290.424,303.777,281.435,294.777z"></path></g></g><g><g><path d="M135.758,192.388h-9.44c-3.375-13.786-15.828-24.048-30.64-24.048c-17.396,0-31.549,14.152-31.549,31.548 s14.152,31.549,31.549,31.549c14.811,0,27.265-10.262,30.64-24.049h9.44c4.143,0,7.5-3.357,7.5-7.5 S139.901,192.388,135.758,192.388z M95.678,216.437c-9.125,0-16.549-7.424-16.549-16.549s7.424-16.548,16.549-16.548 s16.548,7.423,16.548,16.548S104.803,216.437,95.678,216.437z"></path></g></g><g><g><path d="M433.936,278.469c-2.93-2.928-7.678-2.928-10.607,0l-6.676,6.676c-12.135-7.361-28.198-5.811-38.671,4.662 c-12.299,12.301-12.299,32.314,0.001,44.616c6.15,6.149,14.229,9.225,22.308,9.225c8.079,0,16.158-3.075,22.309-9.225 c5.958-5.959,9.24-13.882,9.24-22.309c0-5.866-1.594-11.486-4.571-16.371l6.667-6.667 C436.865,286.147,436.865,281.399,433.936,278.469z M411.992,323.816c-6.452,6.453-16.951,6.45-23.403,0.001 c-6.452-6.453-6.452-16.951,0-23.403c3.125-3.126,7.281-4.848,11.701-4.848s8.576,1.722,11.701,4.848 C418.445,306.866,418.445,317.364,411.992,323.816z"></path></g></g><g><g><path d="M428.014,143.382l-52.719-22.535c-3.812-1.629-8.218,0.141-9.845,3.948l-28.169,65.898 c-1.628,3.809,0.14,8.217,3.948,9.845l52.719,22.535c0.962,0.411,1.961,0.605,2.944,0.605c2.913,0,5.684-1.707,6.9-4.554 l28.169-65.898C433.59,149.418,431.823,145.01,428.014,143.382z M392.948,206.332l-38.926-16.639l22.272-52.105l38.926,16.639 L392.948,206.332z"></path></g></g><g><g><path d="M191.036,357.568l-20.645-68.629c-0.572-1.905-1.879-3.504-3.631-4.446c-1.752-0.941-3.808-1.148-5.711-0.575 l-20.27,6.098l-6.097-20.269c-1.193-3.969-5.382-6.218-9.342-5.021l-54.903,16.515c-1.905,0.572-3.504,1.879-4.446,3.631 c-0.941,1.752-1.148,3.807-0.575,5.711l20.645,68.629c0.977,3.247,3.955,5.342,7.179,5.342c0.716,0,1.443-0.104,2.163-0.32 l20.271-6.098l6.097,20.268c0.977,3.247,3.955,5.342,7.179,5.342c0.716,0,1.443-0.104,2.163-0.32l54.902-16.516 C189.982,365.718,192.23,361.534,191.036,357.568z M98.264,347.707l-16.323-54.265l40.539-12.193l16.323,54.264L98.264,347.707z M133.974,366.901l-3.938-13.088l20.27-6.097c1.905-0.572,3.504-1.879,4.446-3.631c0.941-1.752,1.148-3.807,0.575-5.711 l-10.226-33.995l13.088-3.937l16.323,54.265L133.974,366.901z"></path></g></g></svg>